<svg version="1.2" xmlns="http://www.w3.org/2000/svg" viewBox="0 0 256 256" width="512" height="512">
	<style>
		.s0 { fill: #f6f2e3;stroke: #284c5a;stroke-linecap: round;stroke-linejoin: round;stroke-width: 4 }
		.s1 { fill: #284c5a }
	</style>
	<g id="Layer 1">
		<path id="Shape 3" fill-rule="evenodd" class="s0" d="m127.95 247.46c-66.33 0-119.95-53.62-119.95-119.96 0-66.33 53.62-119.95 119.95-119.95 66.34 0 119.96 53.62 119.96 119.95 0 66.34-53.62 119.96-119.95 119.96z"/>
		<path id="I
" class="s1" aria-label="I"  d="m171.5 32.6h2.7l2.9 2.7h2.7v3 2.7q0 2.2-0.5 4.2-0.2 1.7-2.2 1.7-1.2 2.2-3.2 3.4-1.7 1.2-3.7 2.2-1.9 1-3.4 2.2-1.2 1.3-1.2 3.5l-3 2.7h-2.7v11.5 5.7 11.3 17 8.6q0 0.7 0.3 1.7 0.2 0.8 0.7 2 0.5 1 1.7 1.9-2 2-2.4 2.8-0.3 0.7-0.3 2.9l2.7 3q0 2.2-1.5 4.4-1.2 2-1.2 3.9v8.6 8.6 5.7q1 1 1 1.7 0.2 0.5 0.2 1 0 0.5 0.3 1.2 0.2 0.8 1.2 1.7-1.2 0-1.2 0.5 0 0.5 0.2 1 0.3 0.8 1 1.2v3 3 8.3 5.7 2.9h3q1.9 2.2 4.1 2.7 2.5 0.3 4.5 0.3 2.2 1.9 0.7 5.6-1.5 3.5-3.4 5.4-1 0.3-1.8 0.5-0.4 0.5-0.9 1-0.5 0.3-0.5 1.5h-2.7q0 2.2-0.5 2.7-0.3 0.2-2.5 0.2v3q-2 0-2.7 0.5-0.7 0.2-2.7 2.2-2.2 0-4.4 1.5-2 1.4-4.5 1.4h-2.7q-1.9 0-4.1-1.4-2.2-1.5-4.2-1.5-2.2 0-6.2 1.2-3.9 1-8.1-1.2h-2.9q-4.2 2.2-8.4 1.2-4.2-1.2-8.6-1.2h-3q0 2.2-1.7 1.2-1.7-1.2-3.9-1.2-2 0-2.5 1.5-0.2 0.7-0.2 1.4-2 0-2.5-1.4-0.2-0.8-0.2-1.5h-5.9v-8.6q1.9-2.2 5.6-4.2 3.7-2.2 5.7-4.2 2.2-2.2 2.9-3.9 0.8-1.7 2.7-1.7 0-1.3-0.4-1.5-0.5-0.5-1-1-0.8-0.2-1.3-0.5 2 0 1-0.2-1-0.5-1-2.7v-2.7-5.7q0-2.2 1-5.6 1-3.7-1-6v-19.6-3q1-1 1-2.4 0.3-1.8 0-3.2-0.2-1.8-0.7-3.2-0.3-1.5-0.3-2.5v-19.9-5.7-2.9-5.7q0-6.4-1.2-12.3-1-6.1 1.2-10.3 0-1.2-0.4-1.5-0.5-0.5-1-1l-1.5-0.4q0-2 1.5-2.5 0.7-0.3 1.4-0.3v-5.9q-1.2-2.2-2.7-2.4-1.4-0.3-3.2 0-1.4 0.2-2.9 0.5-1.5 0.2-2.7-0.8-2 0-4.2-1.4-2.2-1.5-4.2-1.5 0-2 3.2-4.2 3.2-2.2 5.2-4.2 2.4-1.9 3.2-3.7 0.7-1.9 2.7-1.9 2 0 2.4-1.5 0.3-0.7 0.3-1.5 0-1.2 0.5-1.5 0.5-0.4 1-0.9l1.4-0.5q0-2 0.3-2.2 0.5-0.5 2.4-0.5 0-2.2 1.5-3 1.5-0.7 1.5-2.7h2.7q4.4 0 6.9 0.5 2.5 0.2 4.7 2.2h8.3q8.6 0 15 1.2 6.4 1 10.8-1.2h5.7q0.7-0.5 1.7-1.2 2-1.5 3.7-1.5zm2.7 5.7h-8.6q-4.2 0-6.6 1.4-2.5 1.3-4.7 1.3h-14.3-11.5-5.4-5.7-11.5v2.9q1.7 0 2.7-1.5 0.4-0.7 0.4-1.4 2 0 2.5 1.4 0.3 0.8 0.3 1.5 1.9 0 4.1 1.5 2.2 1.5 4.2 1.5v2.9 8.4 2.7 2.9 2.7 11.6 5.7 8.6q0 6.4 0.3 14.2 0.5 7.7 2.7 14v8.7 14 31.5 5.6 2.7 5.7q0 2.2-2 4.1-1.7 1.8-3.7 1.8-2.2 0-2.9 1-0.8 0.9-2.7-1h2.7-8.6v2.7h8.6l1.4 0.5q0.5 0.5 1 1 0.5 0.2 0.5 1.4h14.3v-2.9q1.9 0 3.9 1.5 1 0.7 1.7 1.4h2.7 8.4q2.5 0 4.4 1.5 2.2 1.2 4.4 1.2 0-1.9 1.3-2.4 0.7-0.3 1.5-0.3h8.3q0.8 0.3 1.5-0.2 1.7-0.5 1.7-2.7h-3.2-5.6-2.7q-2-2-1.5-2.2 0.7-0.5-1.3-0.5v-3-5.6-3-5.6-8.7-5.6-2.7-3-5.4-2.9q0-2.2-1.2-4.7-1-2.7 1.2-6.9-2.2 0-2.7-0.2-0.2-0.5-0.2-2.5v-2.7q0-1.2 0.5-1.5 0.5-0.5 1-1l1.4-0.4q0-1.3-0.4-1.5-0.5-0.5-1-1l-1.5-0.5q0-2 1.5-3.9 0.7-1 1.4-1.8v-5.6-8.6-3l-2.9-2.7q0-1.9 1.5-4.2 1.4-2.2 1.4-4.1-0.7 0.2-1.4-0.3-1.5-0.5-1.5-2.7-0.2-0.7 0.2-1.5 0.5-1.4 2.7-1.4l-2.9-2.7v-8.6-8.7-5.6-2.7q0-2.2 1-3.9 1.2-1.8-1-1.8 2.2 0 2.5-1.7 0.4-1.7 0.4-3.9l2.8-3h2.7 2.9q4.4 0 6.4-0.7 2.2-0.8 2.2-4.9zm-74 16.9v-2.7q2.2 0 3.4-0.2 1.5-0.5-0.5-2.5 0 2-1.4 2.7-1.5 0.8-1.5 2.7zm14.3-2.7h-2.7v2.7q1.9 0 2.4-1.2 0.3-0.7 0.3-1.5zm-2.7 5.7v-3q-2 0-4 2-1.9 1.7-1.9 3.7 2.4 0 3.1-1.2 0.8-1.5 2.8-1.5zm-22.7 0h-3.2zm22.7 11.3q0-1.7 1.2-2.5l1.5-0.5v-8.3q-2 0-2.5 1.5-0.2 0.7-0.2 1.2 0.9 0 0.9 1 0.3 1 0 2.2-0.2 1.2-0.7 2.9-0.2 1.5-0.2 2.5zm-11.6 11.3v3q1.2 0 1.5-0.5 0.5-0.5 1-1l0.5-1.5q0.7-0.5 0.9-1.2 0.5-1.5-0.9-1.5zm0 5.7h2.9zm11.6 0l-2.7 2.9q1.9 0 2.4-1.5 0.3-0.7 0.3-1.4zm0 8.6q-2 2.2-4.5 3.9-2.2 1.7-4.1 1.7 4.4 0 6.8-1.7 2.5-1.7 4.5-3.9v-5.7q0 2.2-1.5 3-1.2 0.7-1.2 2.7zm-5.9 11.3h5.9q0-2.2 0.2-2.5 0.5-0.5 2.5-0.5v-2.7-2.7q-2 2-4.2 4.2-2 2-4.4 4.2zm0 11.5q2.4 0 4.1-1.7 1.8-1.9 1.8-3.9 1.9 0 2.2-0.3 0.5-0.5 0.5-2.7v-2.9q-2 2.2-4.2 4.9-2 2.5-4.4 6.6zm-2.7 0l2.7-2.9q-2 0-2.5 0.5-0.2 0.2-0.2 2.4zm14.2 0l-0.5-1.4q-0.5-0.5-1-1-0.2-0.5-1.4-0.5-2 2.2-2.7 4.4-0.8 2-2.7 3.9 1.9 0 3.9-1.7 2.2-1.7 4.4-3.7zm-14.2 5.4v3zm11.3 5.9q-2 0-2.7 2-0.8 1.7-2.7 3.7h2.7q1.9-2 3.6-4.5 2-2.7 2-7.1-2.2 2.2-2.7 3-0.2 0.7-0.2 2.9zm-11.3 3v5.4q0-2 1.2-2.7 1.5-0.8 1.5-2.7 0.7 0.2 1.4-0.3 1.8-0.5 1.8-2.7-2.5 0-3.2 1.5-0.8 1.5-2.7 1.5zm11.3 5.4q0.7 0 1.4-0.3 1.5-0.5 1.5-2.4 0 1.9-1.5 2.4-0.7 0.3-1.4 0.3zm-11.3 5.6v11.6q1.9-2 2.7-2.7 0.7-0.8 3.2-3h-3.2-2.7q1.9-2.2 2.7-4.4 0.7-2.2 3.2-4.2-1 0-2 0.3-2 0.5-3.9 2.4zm14.2 3v-3q-4.2 2.2-6.6 5.9-2.5 3.7-4.9 5.7 4.4-2 5.4-4.2 1.2-2.2 3.2-4.4zm0 8.6v-2.7q-2.2 1.9-5.7 4.2-3.4 1.9-5.9 4.1 4.4 0 6.4-1.7 2.2-2 2.2-3.9zm-11.5 14h3.2q1.9-2 3.9-3.7 2.2-2 4.4-2v-5.6q-2.2 4.2-5.6 6.9-3.5 2.4-5.9 4.4zm11.5-2.7v2.7q-4.2 0-5.4 2-1 1.7-2.9 3.9 1.9 0 3.9-1.7 2.2-2 4.4-4.2zm0 11.3v-2.7q-2.2 0-2.9 1.5-0.8 1.2-2.7 1.2 0 2.2-1.5 3-1.2 0.7-1.2 2.7 1.9-2 3.9-2.7 2.2-0.8 4.4-3zm0 5.7l-2.9 2.9 2.9 2.7zm-8.3 3v2.7zm11 19.7h5.7q-2-2-2.7-1-0.8 1-3 1zm14.3 0h-2.7zm14 2.9h-2.7v3q0-1.8 1.2-2.5zm-59.2 2.9q0 2.3 1.2 2.3 1.5 0 1.5-2.3v-2.9q-2 0-2.5 1.5-0.2 0.7-0.2 1.4zm11 0h-2.7q0.5 1 1.2 1.3 1.5 1 1.5-1.3zm39.9 0h-2.7zm11.5 3v-3q-1 0.3-2 0.5-0.9 0.5-1.9 1-1 0.3-2 1.5 2 0 3.9 1 2 1 2-1z"/>
	</g>
</svg>
