<svg version="1.2" xmlns="http://www.w3.org/2000/svg" viewBox="0 0 256 256" width="512" height="512">
	<style>
		.s0 { fill: #f6f2e3;stroke: #284c5a;stroke-linecap: round;stroke-linejoin: round;stroke-width: 4 }
		.s1 { fill: #284c5a }
	</style>
	<g id="Layer 1">
		<path id="Shape 3" fill-rule="evenodd" class="s0" d="m127.95 247.46c-66.33 0-119.95-53.62-119.95-119.96 0-66.33 53.62-119.95 119.95-119.95 66.34 0 119.96 53.62 119.96 119.95 0 66.34-53.62 119.96-119.95 119.96z"/>
		<path id="Y" class="s1" aria-label="Y"  d="m207.8 49.6v5.4q-2.1 2.2-5.6 5.7-3.3 3.3-5.2 5.4h-2.8q-1.9 1.9-4.2 4-2.2 2.1-4 4v3.1q-2.2 0-2.9 0.4-0.7 0.3-2.6 2.4v5.4q-2.1 4-4.2 8.2-2.1 4-4 8.3v2.6q0 2.1-1.4 2.8-1.4 0.7-1.4 2.8 0 1.9-0.5 3.8-0.2 1.6-2.3 1.6l-0.5 1.9q-0.5 0.9-1 1.9-0.2 0.7-1.4 1.9v2.6q-1.9 0-2.3 1.8-0.3 1.7-0.3 3.6-1.1 0-1.4 0.4 0 0.5 0 1 0 0.5-0.2 0.9-0.2 0.5-1.2 0.5v2.6q0 2.3-0.5 4.5-0.2 2.1-2.1 4v16.4 5.4q1 1.2 1 2.6 0.2 1.4 0.2 3.1 0 1.4 0.2 3 0.3 1.5 1.2 2.6v2.6 2.8 2.6 5.4 5.5h2.8v3h2.6 2.9q2.1 0 2.8 1.2 0.7 0.9 2.8-1.2 1.4 0.3 2.6 0.5 1.2 0.5 1.9 0.9 0.9 0.3 0.9 1.4v2.6 5.4l-5.4 5.5h-2.8q0 2.3-0.5 2.8-0.2 0.2-2.3 0.2l-2.9 2.6h-2.6l-2.8 2.8q-1.9 0-4 1.4-2.1 1.2-4 1.2h-3-5.5-5.4-2.8-2.6-3-2.6q-2.1-1.9-4.3-1.2-1.8 0.5-4-1.4-1.1 1-2.5 1.2-1.5 0.2-3.1 0.2-1.7 0-3.1 0.3-1.4 0-2.3 0.9-2.1 0-5.7-0.2-3.3-0.5-5.1-2.4-2.2 0-4 1.4-1 0.7-1.7 1.2h-2.8-5.4v-2.6-8.4q1.9-1.9 4-2.2 2.1-0.4 4.2-0.4 0-2.2 1.4-2.9 1.4-0.7 1.4-2.5h2.9q1.8-2.2 2.5-2.9 0.8-0.7 2.9-2.6h-2.9q2.2-2.1 2.4-4.7 0.5-2.6 0.5-6.6v-2.5-8.3-2.6-3-2.6q0-2.1-0.3-5 0-3-0.4-5.8-0.5-2.9-1.7-5.2-0.9-2.4-3-3.3 0-2.1-0.5-3.8-0.2-1.6-2.4-1.6v-2.8q-2.1-1.9-2.8-4-0.7-2.2-2.8-4.5-2.1-1.9-2.8-4-0.7-2.1-2.6-4-2.1-4-5.7-8.5-3.3-4.7-5.2-10.8 0-2.1-1.6-4-1.4-2.1-1.4-4.2-1.9-4.3-4-9.2-2.1-5.2-4-7.3h-2.8v-2.6-2.8q-0.7 0.9-1.4 1.1-1.5 1-1.5-1.1 0-1.7-1.4-2.6-0.7-0.5-1.1-0.5h-5.7-2.8q-0.7-0.7-1.4-1.6-1.2-1.7-1.2-3.8 0-0.9 0.7-1.4 0.9-0.7 1.9-1.2 1.2-0.5 1.9-0.9 0.9-0.7 0.9-1.9h2.6v-2.6q1.2-1.2 2.1-1.9 1.2-0.9 1.9-1.9 0.9-0.9 1.6-1.9 2.2 0 2.9-1.4 0.7-1.4 2.8-1.4 0-1.9 1.2-2.3 0.7-0.3 1.4-0.3 2.1 0 2.3 0.5 0.5 0.2 0.5 2.1 1.9-1.9 4.5-1.2 2.6 0.5 6.6-1.4 2.1 0 4.4 0.5 2.6 0.2 5.2 0.5 2.6 0.2 5 0.2 2.5-0.2 4.7-1.2 0 1.2 0.7 1.2 0.7 0 1.8-0.2 1.2-0.3 2.9-1 4 1.9 6.6 1 2.8-1 7-1h16.7 5.4q-2.1 2.2-1.1 3.8 0.2 0.9 1.1 1.6-2.1 2.2-2.8 4-0.7 1.7-2.6 1.7-2.3 1.9-4 2.6-1.6 0.7-1.6 2.8 0 1.9 0.2 2.6 0.5 0.7 2.4 2.8 2.3 1.9 4 4.5 1.6 2.6 1.6 6.6 2.1 0 2.4 0.4 0.4 0.3 0.4 2.4l2.6 2.6q-0.2 0.7 0.3 1.4 0.4 1.4 2.5 1.4 0 1.9 0.3 2.6 0.5 0.7 2.3 2.8-0.2 1 0.3 1.9 0.2 1.4 2.6 3.8 2.3-2.1 2.5-4.3 0.5-2.1 0.5-4.2 1.9-1.9 2.1-4 0.5-2.1 0.5-4 2.1-2.1 2.1-2.8 0-0.7-2.1-2.6 0.9 0 1.4-1 0.7-0.9 0.7-1.8 0-1.2-0.7-2.2-0.5-0.9-1.4-0.9h-2.6v-2.6h-5.9q-0.9 0-2.3 0.5-1.4 0.2-2.6 0.5-1.2 0.2-2.1 0.2-1-0.2-1-1.2v-2.8q0-0.7 0.3-1.7 0.4-1.8 2.3-3.7 4-1.9 8.3-5.7 4.4-4 8.4-8h2.6q0-1.1 0.5-1.4 0.5-0.4 0.9-0.9l1.4-0.5h2.6 8.5 2.6q4.2 2.1 6.6 1.2 2.3-1.2 4.5-1.2 1.8 0 4 1.2 2.3 0.9 4.2-1.2h2.8 5.4q1.9 0 3.6 0.5 1.8 0.2 1.8 2.3zm-5.4 2.6h-13.9-2.5-8.3-5.4q-1.2 0-3.1-0.2-1.6-0.5-3.5-0.5-1.9 0-3.3 0.7-1.2 0.7-1.2 2.8 2.2 1.2 4 1 2.2-0.2 4.3-0.5 2.1-0.5 4 0 2.1 0.3 4.2 2.4 2.1 2.1 2.1 5.6 0 3.3-2.1 5.2v5.4q-2.1 2.4-2.8 5.9-0.7 3.3-2.6 5.4-2.1 1.9-2.8 4-0.7 2.1-2.8 4 0 6.4-3.1 11.3-3.1 4.7-5.2 10.8 0 2.1-1.4 2.8-1.2 0.8-1.2 2.9-2.1 0-2.8 1.4-0.7 1.2-2.6 1.2 0-1.9-0.5-4-0.2-2.2-2.5-4.3-2.2-2.1-2.9-4.4-0.7-2.4-2.6-6.6-2.1 0-2.5-1.2-0.5-0.7-0.3-1.4-1.9-4.3-4-7.1-2.1-2.8-4-6.8-2.3-1.9-4-4.2-1.6-2.6-1.6-6.6h-2.8q0-2.4-1.5-4.3-1.1-2.1-1.1-4.2-2.2-1.9-2.9-4-0.7-2.1-2.8-4 0-2.1 1.7-2.4 1.8-0.4 4-0.4 0.7 0.2 1.6-0.3 1.7-0.4 3.8-2.6h2.6-2.6q-4 0-6.6-0.9-2.4-1.2-4.5 0.9h-8.2-5.4-5.4-8.5-2.8-5.5-2.5-2.9q-1.8 0-4.2-0.9-2.1-1.2-4 0.9v2.9q4.2 0 6.6 1.1 2.3 1 4.5-1.1 3 2.1 5.1 4.9 2.2 2.8 3.8 5.9 1.9 3.1 3.5 6.1 1.9 3.1 4 5.2 0 4 1.7 6.3 1.9 2.4 3.7 4.5-0.2 0.7 0.3 1.4 0.5 1.2 2.6 1.2v2.8q1.9 2.1 2.1 2.9 0.5 0.7 0.5 2.8 2.1 1.9 3.7 4 1.7 2.1 1.7 4.2 2.3 0 2.6 0.5 0.4 0.2 0.4 2.1 1.9 2.1 3.6 4.2 1.8 2.2 1.8 4.3 0 1.9 0.3 2.6 0.4 0.7 2.6 2.8v2.6q1.8 2.1 1.1 3.7-0.4 1.7 1.5 1.7 0 2.3-0.5 3-0.3 0.7-2.1 2.9v2.6 5.4 22.1 8.2 2.8q0 1.9 1.1 4 1.5 2.2 1.5 4v8.5 2.8q-1.9 0-2.6 1.5-0.7 1.1-2.9 1.1-2.1 0-5.6-0.9-3.5-1-5.4 0.9l-2.8 2.9q2.1 1.8 4 2.3 2.1 0.2 4.4 0.2 1.9 0 4-1.1 2.1-1.4 4.3-1.4v2.5h2.6q2.1 0 5.6-0.9 3.5-0.9 5.4 0.9h5.4 8.3 3 5.4 2.6 13.9v-5.4q0 2.1-1.9 1.2-1.6-1.2-3.7-1.2h-2.9-2.6-2.8q-1.9 0-2.3-0.2-0.3-0.5-0.3-2.4v-2.8q-0.2-1.4-0.4-3-0.5-1.2-1-2.6-0.2-1.7-1.4-2.9v-16.4-5.4-2.9-2.6q0-1.8-1.4-3.7-0.7-1-1.2-1.7l2.6-3q0-1.9-0.9-2.6-1-0.7 0.9-2.8v-5.4-8.5-5.4q2.1 0 2.8-1.2 0.7-1.4 2.6-1.4v-5.4h2.8v-5.7q0.5-0.7 1.2-1.6 1.4-1.9 1.4-3.8l2.9-2.8v-2.8q2.1-1.9 2.3-2.6 0.5-0.7 0.5-2.8 2.1-6.2 4-10.6 2.1-4.5 4.2-8.5v-5.9q2.1 0 2.8-1.6 0.7-1.7 2.6-3.8 2.1-1.9 2.9-3.5 0.7-1.9 2.5-1.9 0-1.9 0.3-2.1 0.4-0.5 2.8-0.5l2.6-2.8h2.8 5.4zm-55 11q0-0.4 0.4-1.1 0.5-0.5 1-1 0.4-0.5 1.6-0.5-2.3 0-2.8 0.5-0.2 0.2-0.2 2.1zm11 5.4q2.1-1.8 4-3.5 2.1-1.9 4.3-1.9-2.2 0-4.3 1.9-1.9 1.7-4 3.5zm-98.8-5.4h-2.8zm5.4 2.9q0.4 0.2 1.2-0.3 1.4-0.5 1.4-2.6zm101.6 0q1.2 0 1.4-0.4 0.5-0.5 1-1l0.4-1.4-1.4 0.5q-0.4 0.4-0.9 0.9-0.5 0.3-0.5 1.4zm5.7 0l-2.9 2.6q-0.2-0.7 0.3-0.9 0.7-0.7 2.6 0.9zm-96.3 0q-2.1 1.9-6.1 4.5-3.8 2.3-7.8 6.6 2.2 0 4-1.4 2.2-1.7 4.5-1.7 0-1.9 0.2-2.1 0.5-0.5 2.4-0.5 2.1-2.1 2.8-2.3 0.7-0.5 2.6-0.5h-2.6v2.8q-2.1 1.9-4.2 4.3-1.9 2.1-4.2 4.2 2.3 0 3-1.4 0.7-1.4 2.6-1.4 0.7-1 1.6-1.9 0.8-0.9 1.7-1.7 0.9-0.9 2.1-2.1h2.8q-2.1-2.1-2.8-3.7-0.7-1.7-2.6-1.7zm-13.9 2.6q0.7 0 1.5-0.2 1.4-0.5 1.4-2.4-2.2 0-2.6 0.5-0.3 0.2-0.3 2.1zm101.7 2.8q2.1 0 2.8-0.2 0.7-0.5 2.8-2.6-2.1 0-2.8 1.4-0.7 1.4-2.8 1.4zm2.8 5.7q2.1-2.4 3.6-2.6 1.4-0.5-0.8-0.5-0.7 0-1.4 0.5-1.4 0.9-1.4 2.6zm-85.2 0v-3.1q-2.1 2.4-4.2 3.1-1.9 0.7-4 2.8v2.6q2.1-1.9 4-2.6 2.1-0.7 4.2-2.8zm-5.4 8.2q1.9 0 2.6-1.4 0.7-1.4 2.8-1.4 0-0.9 0.7-1.4 1-0.7 1.7-1.2 0.7-0.5 0.9-0.9 0.3-0.7-0.7-1.9-0.9 2.1-2.3 3.3-1.4 0.9-2.6 1.9-1.2 0.7-2.1 1.4-1 0.7-1 1.6zm82.4 5.4q4-2.1 5.6-3 1.9-1.2-0.2-5.2 0 2.1-1.7 4.2-1.6 1.9-3.7 4zm-68.7-2.8h-2.8q-2.2 2.1-3.8 2.8-1.7 0.7-1.7 2.6 1.9 0 4-1.6 2.2-1.7 4.3-3.8zm-13.7 0l-5.4 5.4h2.6q0.7-0.7 1.4-1.6 1.4-1.9 1.4-3.8zm8 8.2q2.1 0 2.9-1.6 0.7-1.9 2.8-3.8 0 1.2 0.4 1.2 0.5 0 1-0.2 0.7-0.3 1.4-1-2.1 1.2-3.8 2.1-1.4 1-2.6 1.7-1.1 0.9-2.1 1.6zm71.8 0q-2.1 0-2.6 1.5-0.5 0.7-0.2 1.4 2.1 0 4-1.7 2.1-1.9 4.2-4-2.1 0-2.8 0.5-0.7 0.2-2.6 2.3zm-63.3 0h2.8l-0.4-1.4q-0.5-0.4-1-0.9-0.2-0.5-1.4-0.5-4.2 4.3-6.8 7.1-2.4 2.8-4.3 6.8 1.9-2.1 5.5-5.4 3.5-3.5 5.6-5.7zm0 5.7q-2.1 1.9-4.2 2.6-2.2 0.7-4.3 2.8 2.1 0 2.9-0.2 0.7-0.5 2.8-2.6 2.1 0 4.2-1.7 2.1-1.6 4-3.7-1.9 0-2.6 1.4-0.7 1.4-2.8 1.4zm57.9 0v2.6 5.6q1.9-2.1 2.6-2.8 0.7-0.7 2.8-2.8 0-1.9-1.9-1.2-1.6 0.5-3.5-1.4zm-71.8 2.6h-2.6zm22.1 0v2.8zm0 5.6q0 4-1.4 5.2-1.4 1-1.4 3.1 2.1-2.1 4-2.8 2.1-0.7 4.3-2.9-2.2-1.8-2.9-2.6-0.7-0.7-2.6-2.8zm-11 11.1q2.1-2.1 4.2-4.3 2.1-2.1 4-4.2-0.9 1.2-2.3 1.9-1.4 0.5-2.9 1.4-1.1 0.7-2.1 1.9-0.9 1.2-0.9 3.3zm2.8 5.4q2.1 0 4-1.7 2.1-1.8 4.2-3.7-2.1 0-4.2 1.6-1.9 1.7-4 3.8zm19.3-5.4q-2.3 0-2.8 0.5-0.3 0.2-0.3 2.1h-2.5l-2.9 2.8-5.4 5.4 2.8-2.8q1.9-1.9 5.2-2.8 3.6-1.2 5.9-5.2zm-22.1 2.6l-2.8 2.8h2.8zm19 5.4q-0.9 1.2-2.3 1.9-1.4 0.5-3.1 1.4-1.4 0.7-3 1.9-1.4 1.2-2.4 3.3 1.2 0 1.4-0.5 0.5-0.5 1-0.9 0.2-0.7 0.4-1.7 1.9 0 4-1.2 2.2-1.4 4-1.4 2.4-2.1 3.1-2.8 0.7-0.7 2.6-2.6l-2.6-2.8q0 2.1-1.6 2.8-1.5 0.7-1.5 2.6zm-13.4 0h-5.6q0 2.1 1.4 2.6 0.7 0.5 1.4 0.2zm19.1 2.9v2.5q-1 1.2-2.4 2.4-1.4 1.2-2.8 2.6-1.2 1.2-2.1 2.8-1 1.4-1 3.5 1.9-2.1 4-3.7 2.4-1.7 4.3-1.7 0-2.1 1.4-4.2 1.4-2.4 1.4-4.2zm-8.2 5.6l2.5-3.1q-0.7 0-1.4 0.5-1.1 0.7-1.1 2.6zm-5.5 5.4h-2.8q0 2.1 0.3 2.6 0.4 0.2 2.5 0.2 0-0.7 0.3-1.4 0.5-1.4 2.3-1.4zm13.7 0h-2.6q0 2.1-1.9 2.8-1.9 0.7-3.8 2.6h2.6q0-1.9 1.9-2.1 1.9-0.5 3.8-0.5zm0 8.3h-2.6q0.5 0.2 1.2-0.3 1.4-0.4 1.4-2.6h2.8q-2.1 0-2.6 0.5-0.2 0.3-0.2 2.4zm-8.3 2.6h-2.8zm2.6 11q2.4 0 3.1-0.2 0.7-0.5 2.6-2.4 0.4 0.3 0.9-0.2 0.7-0.7-0.9-2.6-1.9 2.1-3.8 2.8-1.9 0.7-1.9 2.6zm0 8.3q2.4 0 4-0.3 1.7-0.4 1.7-2.3v-2.9q-1.9 2.2-3.8 2.9-1.9 0.7-1.9 2.6zm-2.6-2.6v2.6zm8.3 5.6l-2.6 2.6q-1 0.2-1.7 0.5-0.4 0.4-0.9 0.9-0.5 0.2-0.5 1.4 1.2-0.9 2.6-1.6 1.4-0.7 2.4-1.2 1.1-0.5 1.4-0.9 0.2-0.8-0.7-1.7zm0 8q0.7 0 1.4-0.2 1.4-0.5 1.4-2.4-2.1 0-4.3 1.7-1.8 1.6-4.2 3.7 2.1 0 4-1.4 1-0.7 1.7-1.4zm0 5.4q0.9 0 1.1 1 0.3 0.9-0.2 2.3-0.2 1.2-0.7 2.6-0.2 1.4-0.2 2.6h2.8v-5.7-5.4q-2.1 0-2.6 1.4-0.5 0.7-0.2 1.2zm-11.1 8.5q2.1 0 5.2-0.2 3.3-0.5 3.3-2.9h-5.7v-2.6q-2.1 0-2.6 1.7-0.2 1.6-0.2 4zm-5.4 8.2v2.6l-1.4 0.5q-1.2 0.7-1.2 2.3 1.9 0 3.3-1.6 1.4-1.9-0.7-3.8zm-2.6 8q1.9 0 2.6-0.2 0.7-0.5 2.8-2.4 0 1.9-1.9 2.4-1.6 0.2-3.5 0.2zm-5.6 0h2.8q-1.9-1.6-2.6-0.9-0.5 0.2-0.2 0.9zm30.3 3.1h2.6 2.8l5.7-3.1h-5.7q-0.7 1-1.6 1.7-1.9 1.4-3.8 1.4zm41.2-3.1h5.4q-2.1 0-3.8-0.9-1.6-1-1.6 0.9zm-55.1 0h-2.8zm32.9 0h-5.4zm-21.9 0h-5.4q0 1.2 0.5 1.4 0.5 0 1.2-0.2 0.7-0.2 1.6-0.7 1-0.5 2.1-0.5zm30.2 0h-2.9q-1.1 1.2-2.1 1.7-0.9 0.4-1.6 0.9-1 0.5-1.7 0.5 2.1 0 4-1.4 2.1-1.7 4.3-1.7zm11 0h-5.4q-1.9 2.4-3.8 3.1-1.8 0.7-1.8 2.6 2.3-1.9 5.6-2.6 3.5-0.7 5.4-3.1zm-71.5 3.1q-2.1 0-1.2 1.4 0.2 0.7 1.2 1.2 0-1.9 1.4-2.6 1.4-0.7 1.4-3.1-2.1 0-2.6 1.7-0.4 0.7-0.2 1.4zm8.5-3.1v3.1zm16.4 5.6v-2.6zm41.2 0h-2.6q1.9 0 3.6-0.2 1.8-0.5 1.8-2.3l-0.4 1.4q-0.7 1.1-2.4 1.1zm-13.9 0h2.9z"/>
	</g>
</svg>
